<svg width="1980" height="1080" viewBox="0 0 3999 3641" fill="none" xmlns="http://www.w3.org/2000/svg">
<path d="M771.158 82.7599C941.682 118.682 1072.43 241.661 1164.29 337.102C1168.88 341.867 1173 347.127 1176.47 352.754C1270.7 505.348 1262.19 602.288 1286.66 767.26M771.158 82.7599C901.542 62.9484 971.752 20.1781 1109.66 82.7599L1425.16 275.26M771.158 82.7599V82.7599C686.63 118.035 603.61 157.879 528.845 210.79C514.057 221.256 497.561 233.269 478.158 247.76C417.423 301.834 397.138 332.631 366.658 387.76L303.658 499.76C281.89 554.786 276.356 587.832 283.158 652.26L303.658 814.76C363.21 1203.38 398.201 1438.56 482.586 1789.92C497.583 1852.36 524.839 1971.46 542.415 2033.23C570.608 2132.31 611.803 2265.13 635.658 2323.76C676.087 2423.13 690.507 2478.44 747.158 2573.26L841.158 2750.76M771.158 82.7599C749.595 77.5747 730.557 72.2381 712.995 67.5571C588.811 34.4584 457.389 91.6565 355.499 169.986C344.271 178.618 332.896 187.948 320.658 198.26C249.805 255.466 222.949 287.385 180.158 344.26L98.6582 467.26C57.0122 535.758 50.8461 576.999 50.1582 652.26L65.6582 814.76L263.158 1911.76C300.72 2081.58 327.4 2172.08 386.658 2323.76C449.762 2490.83 480.02 2561.78 528.737 2673.41C533.306 2683.88 539.573 2693.62 547.724 2701.63C577.034 2730.41 597.004 2740.41 618.658 2750.76C643.158 2762.47 762.39 2753.52 841.158 2750.76M1286.66 767.26C1194.45 891.767 1165.73 966.306 1109.66 1098.26C1074.47 1195.08 1068.98 1251.33 1063.66 1352.26V2323.76M1286.66 767.26L1425.16 652.26C1480.85 613.374 1512.42 595.559 1569.66 574.23M2671.16 467.26H3074.99C3159.28 467.26 3243.08 480.069 3323.52 505.248L3371.65 520.311C3422.52 536.234 3471.59 557.407 3518.08 583.488V583.488C3599.13 628.959 3671.25 688.755 3730.95 759.972L3754.08 787.561C3836.36 885.701 3894.86 1001.51 3925.05 1125.96L3941.14 1192.33C3945.8 1211.55 3948.16 1231.25 3948.16 1251.02V3334.39C3948.16 3376.09 3936.18 3416.92 3913.66 3452.01V3452.01V3452.01C3891.04 3487.24 3859.69 3516.01 3822.64 3535.51L3798.41 3548.26L3793.31 3550.94C3743.62 3577.09 3688.32 3590.76 3632.16 3590.76H1877.16M2671.16 467.26C2602.16 467.26 2390.16 467.26 2390.16 467.26M2671.16 467.26C2705.42 467.26 2722.66 460.214 2725.01 444.382C2733.96 384.075 2638.11 303.895 2588.65 268.246C2553.63 243.003 2516.89 218.301 2498.55 206.114C2490.58 200.816 2482.74 195.619 2474.65 190.506C2439.71 168.428 2334.65 105.368 2240.66 82.7599C2140.98 60.4033 2068.66 47.7601 1979.16 82.7599M1979.16 82.7599C1958.74 60.5381 1905.36 59.2176 1843.85 65.186C1759.43 73.3769 1674.83 90.8464 1598.94 128.714C1592.17 132.093 1585.53 135.606 1578.93 139.299C1518.88 172.928 1471.09 224.005 1425.16 275.26V275.26M1979.16 82.7599L1828.16 154.26C1731.64 204.432 1693.17 240.366 1625.16 304.76L1514.66 433.76M1979.16 82.7599C2078.03 127.724 2127.03 152.995 2193.66 198.26C2214.39 216.208 2231.19 230.754 2247.45 244.833C2293.51 284.721 2340.3 326.799 2361.29 384.008C2361.74 385.238 2362.2 386.488 2362.66 387.76L2390.16 467.26M1425.16 275.26L1514.66 433.76M1514.66 433.76C1514.66 433.76 1548.18 519.373 1569.66 574.23M1569.66 574.23V574.23C1606.57 554.296 1645.32 537.95 1685.35 525.418L1767.3 499.769C1836.14 478.221 1907.85 467.26 1979.99 467.26H2276.66M1569.66 574.23L1574.66 586.495M2390.16 467.26H2276.66M2276.66 467.26L2095.16 608.76L2006.38 686.502C1945.33 739.963 1893.66 803.268 1853.52 873.793L1842.52 893.114C1816.32 939.131 1794.01 987.25 1775.8 1036.97V1036.97C1737.34 1142.01 1717.66 1253 1717.66 1364.86V2323.76M1877.16 3590.76H1286.66C1210.38 3586.94 1159.83 3586.86 1109.66 3505.76C1064.31 3432.46 1063.36 3353.61 1063.59 3339.12C1063.62 3337.53 1063.66 3335.97 1063.66 3334.39V3260.76M1877.16 3590.76C1877.16 3590.76 1861.16 3590.76 1794.16 3525.26C1738.63 3470.97 1722.59 3410.16 1718.73 3390.93C1717.91 3386.81 1717.66 3382.65 1717.66 3378.45V3260.76M1063.66 3260.76H1717.66M1063.66 3260.76V2750.76M1717.66 3260.76V2323.76M1717.66 2323.76H1063.66M1063.66 2323.76V2661.76M2245.66 1254.26V1609.21C2245.66 1632.2 2253.6 1654.52 2268.12 1672.36V1672.36C2287.11 1695.69 2315.62 1709.26 2345.7 1709.26H3599.46C3625.85 1709.26 3651.17 1698.83 3669.9 1680.24L3676.1 1674.1C3695.02 1655.32 3705.66 1629.77 3705.66 1603.11V1254.26M2245.66 1254.26L2254.65 1231.05C2269.3 1193.26 2287.08 1156.75 2307.81 1121.92L2325.48 1092.23C2349.75 1051.44 2385.23 1018.48 2427.68 997.248L2481.68 970.251C2492.32 964.93 2503.33 960.383 2514.62 956.643L2536.69 949.334C2561.84 941.005 2588.16 936.76 2614.66 936.76H3270.83C3358.69 936.76 3445.53 955.603 3525.49 992.018V992.018C3549.01 1002.73 3570 1018.27 3587.1 1037.63L3628.58 1084.59C3636.62 1093.69 3643.98 1103.37 3650.61 1113.54L3663.61 1133.49C3681.14 1160.42 3693.3 1190.48 3699.41 1222.02L3705.66 1254.26M2245.66 1254.26H3014.16M3705.66 1254.26H3281.66M3014.16 1254.26V1408.22C3014.16 1440.3 3022.93 1471.77 3039.53 1499.23L3044.32 1507.15C3058.58 1530.73 3079.29 1549.73 3104.01 1561.91L3110.94 1565.32C3126.22 1572.85 3143.01 1576.76 3160.04 1576.76V1576.76C3175.29 1576.76 3190.37 1573.62 3204.36 1567.54L3206.03 1566.81C3240.16 1551.96 3265.45 1522.1 3274.48 1485.99L3277.36 1474.45C3280.21 1463.03 3281.66 1451.31 3281.66 1439.54V1254.26M3014.16 1254.26H3281.66M2261.16 2385.26V3117.76C2261.16 3172.99 2305.93 3217.76 2361.16 3217.76H3591.45C3646.17 3217.76 3690.73 3173.78 3691.44 3119.06L3701.01 2385.26M2261.16 2385.26V2128.76C2261.16 2073.53 2305.93 2028.76 2361.16 2028.76H3604.35C3660.08 2028.76 3705.06 2074.33 3704.34 2130.06L3701.01 2385.26M2261.16 2385.26H3014.16M3701.01 2385.26H3281.66M3014.16 2385.26V2642.55C3014.16 2672.15 3027.28 2700.24 3049.99 2719.24L3059.8 2727.45C3077.8 2742.51 3100.51 2750.76 3123.98 2750.76H3180.26C3207.65 2750.76 3233.84 2739.53 3252.72 2719.68L3254.11 2718.22C3271.8 2699.63 3281.66 2674.95 3281.66 2649.3V2385.26M3014.16 2385.26H3281.66M1063.66 2750.76H841.158M1063.66 2750.76V2661.76M841.158 2750.76C935.658 2750.76 1063.66 2661.76 1063.66 2661.76M1579.66 598.761L1574.66 586.495M1574.66 586.495L1582.16 602.261" stroke="url(#paint0_linear_124_134)" stroke-width="100"/>
<defs>
<linearGradient id="paint0_linear_124_134" x1="1999.16" y1="50" x2="1999.16" y2="3590.76" gradientUnits="userSpaceOnUse">
<stop offset="0.5" stop-color="#CB997E"/>
</linearGradient>
</defs>
</svg>
