<svg width="8485" height="3641" viewBox="0 0 8485 3641" fill="none" xmlns="http://www.w3.org/2000/svg">
<path d="M5257.16 82.7599C5427.68 118.682 5558.43 241.661 5650.29 337.102C5654.88 341.867 5659 347.127 5662.47 352.754C5756.7 505.348 5748.19 602.288 5772.66 767.26M5257.16 82.7599C5387.54 62.9484 5457.75 20.1781 5595.66 82.7599L5911.16 275.26M5257.16 82.7599C5235.6 77.5747 5216.56 72.2381 5198.99 67.5571C5074.81 34.4584 4943.39 91.6565 4841.5 169.986C4830.27 178.618 4818.9 187.948 4806.66 198.26C4735.8 255.466 4708.95 287.385 4666.16 344.26L4584.66 467.26C4543.01 535.758 4536.85 576.999 4536.16 652.26L4551.66 814.76L4749.16 1911.76C4786.72 2081.58 4813.4 2172.08 4872.66 2323.76C4935.76 2490.83 4966.02 2561.78 5014.74 2673.41C5019.31 2683.88 5025.57 2693.62 5033.72 2701.63C5063.03 2730.41 5083 2740.41 5104.66 2750.76C5129.16 2762.47 5248.39 2753.52 5327.16 2750.76M5257.16 82.7599C5172.63 118.035 5089.61 157.879 5014.84 210.79C5000.06 221.256 4983.56 233.269 4964.16 247.76C4903.42 301.834 4883.14 332.631 4852.66 387.76L4789.66 499.76C4767.89 554.786 4762.36 587.832 4769.16 652.26L4789.66 814.76C4849.21 1203.38 4884.2 1438.56 4968.59 1789.92C4983.58 1852.36 5010.84 1971.46 5028.41 2033.23C5056.61 2132.31 5097.8 2265.13 5121.66 2323.76C5162.09 2423.13 5176.51 2478.44 5233.16 2573.26L5327.16 2750.76M5772.66 767.26C5680.45 891.767 5651.73 966.306 5595.66 1098.26C5560.47 1195.08 5554.98 1251.33 5549.66 1352.26V2323.76M5772.66 767.26L5911.16 652.26C5966.85 613.374 5998.42 595.559 6055.66 574.23M7157.16 467.26H7560.99C7645.28 467.26 7729.08 480.069 7809.52 505.248L7857.65 520.311C7908.52 536.234 7957.59 557.407 8004.08 583.488C8085.13 628.959 8157.25 688.755 8216.95 759.972L8240.08 787.561C8322.35 885.701 8380.86 1001.51 8411.05 1125.96L8427.14 1192.33C8431.8 1211.55 8434.16 1231.25 8434.16 1251.02V3334.39C8434.16 3376.09 8422.18 3416.92 8399.66 3452.01C8377.04 3487.24 8345.69 3516.01 8308.64 3535.51L8279.31 3550.94C8229.62 3577.09 8174.32 3590.76 8118.16 3590.76H6363.16M7157.16 467.26H6876.16M7157.16 467.26C7191.42 467.26 7208.66 460.214 7211.01 444.382C7219.96 384.075 7124.11 303.895 7074.65 268.246C7039.63 243.003 7002.89 218.301 6984.55 206.114C6976.58 200.816 6968.74 195.619 6960.65 190.506C6925.71 168.428 6820.65 105.368 6726.66 82.7599C6626.98 60.4033 6554.66 47.7601 6465.16 82.7599M6465.16 82.7599C6444.74 60.5381 6391.36 59.2176 6329.85 65.186C6245.43 73.3769 6160.83 90.8464 6084.94 128.714C6078.17 132.093 6071.53 135.606 6064.93 139.299C6004.88 172.928 5957.09 224.005 5911.16 275.26M6465.16 82.7599L6314.16 154.26C6217.64 204.432 6179.17 240.366 6111.16 304.76L6000.66 433.76M6465.16 82.7599C6564.03 127.724 6613.03 152.995 6679.66 198.26L6733.45 244.833C6779.51 284.721 6826.3 326.799 6847.29 384.008C6847.74 385.238 6848.2 386.488 6848.66 387.76L6876.16 467.26M5911.16 275.26L6000.66 433.76M6000.66 433.76L6055.66 574.23M6055.66 574.23L6060.66 586.495M6055.66 574.23C6092.57 554.296 6131.32 537.95 6171.35 525.418L6253.3 499.769C6322.14 478.221 6393.85 467.26 6465.99 467.26H6762.66M6876.16 467.26H6762.66M6762.66 467.26L6581.16 608.76L6492.38 686.502C6431.33 739.963 6379.66 803.268 6339.52 873.792L6328.52 893.114C6302.32 939.131 6280.01 987.25 6261.8 1036.97C6223.34 1142.01 6203.66 1253 6203.66 1364.86V2323.76M6363.16 3590.76H5772.66C5696.38 3586.94 5645.83 3586.86 5595.66 3505.76C5550.31 3432.46 5549.36 3353.61 5549.59 3339.12C5549.62 3337.53 5549.66 3335.97 5549.66 3334.39V3260.76M6363.16 3590.76C6363.16 3590.76 6347.16 3590.76 6280.16 3525.26C6224.63 3470.97 6208.59 3410.16 6204.73 3390.93C6203.91 3386.81 6203.66 3382.65 6203.66 3378.45V3260.76M5549.66 3260.76H6203.66M5549.66 3260.76V2750.76M6203.66 3260.76V2323.76M6203.66 2323.76H5549.66M5549.66 2323.76V2661.76M8191.66 1254.26V1603.11C8191.66 1629.77 8181.02 1655.32 8162.1 1674.1L8155.9 1680.24C8137.17 1698.83 8111.85 1709.26 8085.46 1709.26H6831.7C6801.62 1709.26 6773.11 1695.69 6754.12 1672.36C6739.6 1654.52 6731.66 1632.2 6731.66 1609.21V1254.26M8191.66 1254.26L8185.41 1222.02C8179.3 1190.48 8167.14 1160.42 8149.61 1133.49L8136.61 1113.54C8129.98 1103.37 8122.62 1093.69 8114.58 1084.59L8073.1 1037.63C8056 1018.27 8035.01 1002.73 8011.49 992.018C7931.53 955.603 7844.69 936.76 7756.83 936.76H7100.66C7074.16 936.76 7047.84 941.005 7022.69 949.334L7000.62 956.643C6989.33 960.383 6978.32 964.93 6967.68 970.251L6913.68 997.248C6871.23 1018.48 6835.75 1051.44 6811.48 1092.23L6793.81 1121.92C6773.08 1156.75 6755.3 1193.26 6740.65 1231.05L6731.66 1254.26M8191.66 1254.26H7767.66M6731.66 1254.26H7500.16M7500.16 1254.26V1408.22C7500.16 1440.3 7508.93 1471.77 7525.53 1499.23L7530.32 1507.15C7544.58 1530.73 7565.29 1549.73 7590.01 1561.91L7596.94 1565.32C7612.22 1572.85 7629.01 1576.76 7646.04 1576.76C7661.29 1576.76 7676.37 1573.62 7690.36 1567.54L7692.03 1566.81C7726.16 1551.96 7751.45 1522.1 7760.48 1485.99L7763.36 1474.45C7766.21 1463.03 7767.66 1451.31 7767.66 1439.54V1254.26M7500.16 1254.26H7767.66M6747.16 2385.26V3117.76C6747.16 3172.99 6791.93 3217.76 6847.16 3217.76H8077.45C8132.17 3217.76 8176.73 3173.78 8177.44 3119.06L8187.01 2385.26M6747.16 2385.26V2128.76C6747.16 2073.53 6791.93 2028.76 6847.16 2028.76H8090.35C8146.08 2028.76 8191.06 2074.33 8190.34 2130.06L8187.01 2385.26M6747.16 2385.26H7500.16M8187.01 2385.26H7767.66M7500.16 2385.26V2642.55C7500.16 2672.15 7513.28 2700.24 7535.99 2719.24L7545.8 2727.45C7563.8 2742.51 7586.51 2750.76 7609.98 2750.76H7666.26C7693.65 2750.76 7719.84 2739.53 7738.72 2719.68L7740.11 2718.22C7757.8 2699.63 7767.66 2674.95 7767.66 2649.3V2385.26M7500.16 2385.26H7767.66M5549.66 2750.76H5327.16M5549.66 2750.76V2661.76M5327.16 2750.76C5421.66 2750.76 5549.66 2661.76 5549.66 2661.76M6060.66 586.495L6065.66 598.761M6060.66 586.495L6068.16 602.261" stroke="#23201D" stroke-width="72"/>
<path d="M0 1571.07C0 1530.81 20.13 1510.68 60.39 1510.68H173.118C206.668 1510.68 229.482 1525.44 244.244 1556.31L501.908 2113.24L760.914 1556.31C775.676 1525.44 798.49 1510.68 832.04 1510.68H944.768C985.028 1510.68 1005.16 1530.81 1005.16 1571.07V2443.37C1005.16 2483.63 985.028 2503.76 944.768 2503.76H811.91C771.65 2503.76 751.52 2483.63 751.52 2443.37V2097.13L599.874 2456.79C586.454 2487.66 562.298 2503.76 528.748 2503.76H475.068C441.518 2503.76 417.362 2487.66 403.942 2456.79L253.638 2098.48V2443.37C253.638 2483.63 233.508 2503.76 193.248 2503.76H60.39C20.13 2503.76 0 2483.63 0 2443.37V1571.07Z" fill="#635985"/>
<path d="M1557.19 2527.92C1412.26 2527.92 1283.43 2468.87 1188.14 2374.93C1092.86 2280.99 1035.16 2150.81 1035.16 2007.22C1035.16 1862.28 1092.86 1733.45 1188.14 1638.17C1283.43 1542.89 1412.26 1485.18 1557.19 1485.18C1700.79 1485.18 1830.96 1542.89 1926.24 1638.17C2021.53 1733.45 2079.23 1862.28 2079.23 2007.22C2079.23 2150.81 2021.53 2280.99 1926.24 2374.93C1830.96 2468.87 1700.79 2527.92 1557.19 2527.92ZM1557.19 1738.82C1483.38 1738.82 1416.28 1769.69 1367.97 1818C1319.66 1866.31 1288.79 1933.41 1288.79 2007.22C1288.79 2081.03 1319.66 2148.13 1367.97 2196.44C1416.28 2244.75 1483.38 2274.28 1557.19 2274.28C1631 2274.28 1698.1 2244.75 1746.42 2196.44C1794.73 2148.13 1824.25 2081.03 1824.25 2007.22C1824.25 1933.41 1794.73 1866.31 1746.42 1818C1698.1 1769.69 1631 1738.82 1557.19 1738.82Z" fill="#635985"/>
<path d="M2166.05 2503.76C2125.79 2503.76 2105.66 2483.63 2105.66 2443.37V1571.07C2105.66 1530.81 2125.79 1510.68 2166.05 1510.68H2281.46C2312.32 1510.68 2337.82 1524.1 2355.27 1549.6L2665.27 1999.17V1571.07C2665.27 1530.81 2685.4 1510.68 2725.66 1510.68H2858.52C2898.78 1510.68 2918.91 1530.81 2918.91 1571.07V2443.37C2918.91 2483.63 2898.78 2503.76 2858.52 2503.76H2743.11C2712.24 2503.76 2686.74 2490.34 2669.3 2464.84L2359.29 2011.25V2443.37C2359.29 2483.63 2339.16 2503.76 2298.9 2503.76H2166.05Z" fill="#635985"/>
<path d="M3508.07 2264.88C3524.18 2254.15 3532.23 2239.39 3533.57 2223.28C3534.91 2208.52 3530.89 2195.1 3521.49 2185.71C3517.47 2181.68 3512.1 2177.65 3505.39 2172.29C3490.63 2162.89 3465.13 2149.47 3418.16 2136.05C3394 2129.34 3364.48 2122.63 3328.24 2115.92C3181.97 2085.06 3053.13 2028.69 3000.8 1953.54C2973.96 1911.94 2960.54 1867.65 2957.85 1826.05C2955.17 1784.45 2959.19 1745.53 2969.93 1714.66C2991.4 1644.88 3045.08 1587.17 3114.87 1546.91C3184.65 1506.65 3271.88 1483.84 3367.16 1483.84C3447.68 1483.84 3514.78 1497.26 3569.8 1513.36C3623.48 1530.81 3667.77 1554.97 3701.32 1576.44C3734.87 1597.91 3740.24 1626.09 3714.74 1659.64L3642.27 1760.29C3622.14 1791.16 3593.96 1797.87 3559.07 1777.74C3510.76 1749.56 3442.31 1721.37 3367.16 1721.37C3318.85 1721.37 3285.3 1732.11 3263.83 1744.19C3242.36 1756.27 3231.62 1772.37 3227.59 1783.11C3216.86 1809.95 3228.94 1828.73 3253.09 1843.5C3277.25 1858.26 3313.48 1867.65 3356.43 1877.05C3565.78 1918.65 3678.51 1973.67 3728.16 2038.09C3780.5 2106.53 3793.92 2187.05 3779.16 2271.59C3769.76 2336.01 3736.21 2400.43 3673.14 2448.74C3610.07 2498.39 3516.12 2530.6 3385.95 2530.6H3361.79C3352.4 2530.6 3344.35 2530.6 3334.95 2529.26C3231.62 2523.89 3112.18 2502.42 2977.98 2425.92C2941.75 2405.79 2936.38 2373.59 2961.88 2341.38L3051.79 2228.65C3074.61 2197.78 3102.79 2193.76 3136.34 2213.89C3206.12 2255.49 3259.8 2274.28 3336.3 2283.67C3412.79 2293.07 3479.89 2285.01 3508.07 2264.88Z" fill="#635985"/>
<path d="M4301.41 1510.68C4334.96 1510.68 4359.11 1526.78 4371.19 1558.99L4677.17 2433.98C4691.93 2476.92 4674.48 2503.76 4627.51 2503.76H4483.92C4449.03 2503.76 4426.21 2487.66 4415.48 2454.11L4373.87 2331.98H4078.63L4037.03 2454.11C4024.95 2487.66 4002.14 2503.76 3967.25 2503.76H3822.31C3775.34 2503.76 3757.9 2476.92 3772.66 2433.98L4079.98 1558.99C4092.05 1526.78 4114.87 1510.68 4148.42 1510.68H4301.41ZM4317.51 2111.9L4224.91 1836.79L4140.37 2111.9H4317.51Z" fill="#635985"/>
<path d="M5108.35 1997.83L5481.43 2429.95C5517.66 2468.87 5500.22 2503.76 5447.88 2503.76H5276.1C5247.92 2503.76 5222.42 2491.68 5202.29 2468.87L5086.33 2331.76L5043.66 2080.26L4974.15 1843.76L4937.66 1736.26L4913.76 1575.76L4880.16 1510.68H4913.76C4954.02 1510.68 4974.15 1530.81 4974.15 1571.07V1815.31L5207.66 1545.57C5229.13 1520.07 5250.6 1512.02 5281.47 1512.02H5427.75C5480.08 1512.02 5496.19 1546.91 5462.64 1585.83L5108.35 1997.83Z" fill="#635985"/>
<path d="M4780.9 2503.76C4740.64 2503.76 4720.51 2483.63 4720.51 2443.37V1947.26L4827.66 2280.26L4909.66 2503.76H4780.9Z" fill="#635985"/>
<path d="M2443.3 3246.97V3373.12H2825.77C2866.03 3373.12 2886.16 3393.25 2886.16 3433.51V3566.37C2886.16 3606.63 2866.03 3626.76 2825.77 3626.76H2250.05C2209.79 3626.76 2189.66 3606.63 2189.66 3566.37V2694.07C2189.66 2653.81 2209.79 2633.68 2250.05 2633.68H2825.77C2866.03 2633.68 2886.16 2653.81 2886.16 2694.07V2826.93C2886.16 2867.19 2866.03 2887.32 2825.77 2887.32H2443.3V3012.12H2725.12C2765.38 3012.12 2785.51 3032.25 2785.51 3072.51V3186.58C2785.51 3226.84 2765.38 3246.97 2725.12 3246.97H2443.3Z" fill="#443C68"/>
<path d="M3201.09 3246.97V3566.37C3201.09 3606.63 3180.96 3626.76 3140.7 3626.76H3007.84C2967.58 3626.76 2947.45 3606.63 2947.45 3566.37V2694.07C2947.45 2653.81 2967.58 2633.68 3007.84 2633.68H3564.77C3605.03 2633.68 3625.16 2653.81 3625.16 2694.07V2826.93C3625.16 2867.19 3605.03 2887.32 3564.77 2887.32H3201.09V3012.12H3464.12C3504.38 3012.12 3524.51 3032.25 3524.51 3072.51V3186.58C3524.51 3226.84 3504.38 3246.97 3464.12 3246.97H3201.09Z" fill="#443C68"/>
<path d="M3998.41 2633.68C4031.96 2633.68 4056.11 2649.78 4068.19 2681.99L4374.17 3556.98C4388.93 3599.92 4371.48 3626.76 4324.51 3626.76H4180.92C4146.03 3626.76 4123.21 3610.66 4112.48 3577.11L4070.87 3454.98H3775.63L3734.03 3577.11C3721.95 3610.66 3699.14 3626.76 3664.25 3626.76H3519.31C3472.34 3626.76 3454.9 3599.92 3469.66 3556.98L3776.98 2681.99C3789.05 2649.78 3811.87 2633.68 3845.42 2633.68H3998.41ZM4014.51 3234.9L3921.91 2959.79L3837.37 3234.9H4014.51Z" fill="#443C68"/>
<path d="M4609.41 2633.68C4649.67 2633.68 4669.8 2653.81 4669.8 2694.07V3566.37C4669.8 3606.63 4649.67 3626.76 4609.41 3626.76H4476.55C4436.29 3626.76 4416.16 3606.63 4416.16 3566.37V2694.07C4416.16 2653.81 4436.29 2633.68 4476.55 2633.68H4609.41Z" fill="#443C68"/>
<path d="M5038.16 3626.76C4997.9 3626.76 4977.77 3606.63 4977.77 3566.37V2887.32H4771.1C4730.84 2887.32 4710.71 2867.19 4710.71 2826.93V2694.07C4710.71 2653.81 4730.84 2633.68 4771.1 2633.68H5036.16L5050.66 2668.26L5098.16 2722.26L5166.16 2735.26H5307.16L5281.66 2694.07L5237.12 2633.68H5305.16L5349.16 2727.26L5476.16 2680.76L5488.16 2660.26L5489.66 2656.76C5496.53 2666.52 5498.47 2677.44 5498.47 2694.07V2826.93C5498.47 2867.19 5478.34 2887.32 5438.08 2887.32H5231.41V3566.37C5231.41 3606.63 5211.28 3626.76 5171.02 3626.76H5038.16Z" fill="#443C68"/>
<path d="M5257.16 82.7599C5427.68 118.682 5558.43 241.661 5650.29 337.102C5654.88 341.867 5659 347.127 5662.47 352.754C5756.7 505.348 5748.19 602.288 5772.66 767.26M5257.16 82.7599C5387.54 62.9484 5457.75 20.1781 5595.66 82.7599L5911.16 275.26M5257.16 82.7599V82.7599C5172.63 118.035 5089.61 157.879 5014.84 210.79C5000.06 221.256 4983.56 233.269 4964.16 247.76C4903.42 301.834 4883.14 332.631 4852.66 387.76L4789.66 499.76C4767.89 554.786 4762.36 587.832 4769.16 652.26L4789.66 814.76C4849.21 1203.38 4884.2 1438.56 4968.59 1789.92C4983.58 1852.36 5010.84 1971.46 5028.41 2033.23C5056.61 2132.31 5097.8 2265.13 5121.66 2323.76C5162.09 2423.13 5176.51 2478.44 5233.16 2573.26L5327.16 2750.76M5257.16 82.7599C5235.6 77.5747 5216.56 72.2381 5198.99 67.5571C5074.81 34.4584 4943.39 91.6565 4841.5 169.986C4830.27 178.618 4818.9 187.948 4806.66 198.26C4735.8 255.466 4708.95 287.385 4666.16 344.26L4584.66 467.26C4543.01 535.758 4536.85 576.999 4536.16 652.26L4551.66 814.76L4749.16 1911.76C4786.72 2081.58 4813.4 2172.08 4872.66 2323.76C4935.76 2490.83 4966.02 2561.78 5014.74 2673.41C5019.31 2683.88 5025.57 2693.62 5033.72 2701.63C5063.03 2730.41 5083 2740.41 5104.66 2750.76C5129.16 2762.47 5248.39 2753.52 5327.16 2750.76M5772.66 767.26C5680.45 891.767 5651.73 966.306 5595.66 1098.26C5560.47 1195.08 5554.98 1251.33 5549.66 1352.26V2323.76M5772.66 767.26L5911.16 652.26C5966.85 613.374 5998.42 595.559 6055.66 574.23M7157.16 467.26H7560.99C7645.28 467.26 7729.08 480.069 7809.52 505.248L7857.65 520.311C7908.52 536.234 7957.59 557.407 8004.08 583.488V583.488C8085.13 628.959 8157.25 688.755 8216.95 759.972L8240.08 787.561C8322.36 885.701 8380.86 1001.51 8411.05 1125.96L8427.14 1192.33C8431.8 1211.55 8434.16 1231.25 8434.16 1251.02V3334.39C8434.16 3376.09 8422.18 3416.92 8399.66 3452.01V3452.01V3452.01C8377.04 3487.24 8345.69 3516.01 8308.64 3535.51L8284.41 3548.26L8279.31 3550.94C8229.62 3577.09 8174.32 3590.76 8118.16 3590.76H6363.16M7157.16 467.26C7088.16 467.26 6876.16 467.26 6876.16 467.26M7157.16 467.26C7191.42 467.26 7208.66 460.214 7211.01 444.382C7219.96 384.075 7124.11 303.895 7074.65 268.246C7039.63 243.003 7002.89 218.301 6984.55 206.114C6976.58 200.816 6968.74 195.619 6960.65 190.506C6925.71 168.428 6820.65 105.368 6726.66 82.7599C6626.98 60.4033 6554.66 47.7601 6465.16 82.7599M6465.16 82.7599C6444.74 60.5381 6391.36 59.2176 6329.85 65.186C6245.43 73.3769 6160.83 90.8464 6084.94 128.714C6078.17 132.093 6071.53 135.606 6064.93 139.299C6004.88 172.928 5957.09 224.005 5911.16 275.26V275.26M6465.16 82.7599L6314.16 154.26C6217.64 204.432 6179.17 240.366 6111.16 304.76L6000.66 433.76M6465.16 82.7599C6564.03 127.724 6613.03 152.995 6679.66 198.26C6700.39 216.208 6717.19 230.754 6733.45 244.833C6779.51 284.721 6826.3 326.799 6847.29 384.008C6847.74 385.238 6848.2 386.488 6848.66 387.76L6876.16 467.26M5911.16 275.26L6000.66 433.76M6000.66 433.76C6000.66 433.76 6034.18 519.373 6055.66 574.23M6055.66 574.23V574.23C6092.57 554.296 6131.32 537.95 6171.35 525.418L6253.3 499.769C6322.14 478.221 6393.85 467.26 6465.99 467.26H6762.66M6055.66 574.23L6060.66 586.495M6876.16 467.26H6762.66M6762.66 467.26L6581.16 608.76L6492.38 686.502C6431.33 739.963 6379.66 803.268 6339.52 873.793L6328.52 893.114C6302.32 939.131 6280.01 987.25 6261.8 1036.97V1036.97C6223.34 1142.01 6203.66 1253 6203.66 1364.86V2323.76M6363.16 3590.76H5772.66C5696.38 3586.94 5645.83 3586.86 5595.66 3505.76C5550.31 3432.46 5549.36 3353.61 5549.59 3339.12C5549.62 3337.53 5549.66 3335.97 5549.66 3334.39V3260.76M6363.16 3590.76C6363.16 3590.76 6347.16 3590.76 6280.16 3525.26C6224.63 3470.97 6208.59 3410.16 6204.73 3390.93C6203.91 3386.81 6203.66 3382.65 6203.66 3378.45V3260.76M5549.66 3260.76H6203.66M5549.66 3260.76V2750.76M6203.66 3260.76V2323.76M6203.66 2323.76H5549.66M5549.66 2323.76V2661.76M6731.66 1254.26V1609.21C6731.66 1632.2 6739.6 1654.52 6754.12 1672.36V1672.36C6773.11 1695.69 6801.62 1709.26 6831.7 1709.26H8085.46C8111.85 1709.26 8137.17 1698.83 8155.9 1680.24L8162.1 1674.1C8181.02 1655.32 8191.66 1629.77 8191.66 1603.11V1254.26M6731.66 1254.26L6740.65 1231.05C6755.3 1193.26 6773.08 1156.75 6793.81 1121.92L6811.48 1092.23C6835.75 1051.44 6871.23 1018.48 6913.68 997.248L6967.68 970.251C6978.32 964.93 6989.33 960.383 7000.62 956.643L7022.69 949.334C7047.84 941.005 7074.16 936.76 7100.66 936.76H7756.83C7844.69 936.76 7931.53 955.603 8011.49 992.018V992.018C8035.01 1002.73 8056 1018.27 8073.1 1037.63L8114.58 1084.59C8122.62 1093.69 8129.98 1103.37 8136.61 1113.54L8149.61 1133.49C8167.14 1160.42 8179.3 1190.48 8185.41 1222.02L8191.66 1254.26M6731.66 1254.26H7500.16M8191.66 1254.26H7767.66M7500.16 1254.26V1408.22C7500.16 1440.3 7508.93 1471.77 7525.53 1499.23L7530.32 1507.15C7544.58 1530.73 7565.29 1549.73 7590.01 1561.91L7596.94 1565.32C7612.22 1572.85 7629.01 1576.76 7646.04 1576.76V1576.76C7661.29 1576.76 7676.37 1573.62 7690.36 1567.54L7692.03 1566.81C7726.16 1551.96 7751.45 1522.1 7760.48 1485.99L7763.36 1474.45C7766.21 1463.03 7767.66 1451.31 7767.66 1439.54V1254.26M7500.16 1254.26H7767.66M6747.16 2385.26V3117.76C6747.16 3172.99 6791.93 3217.76 6847.16 3217.76H8077.45C8132.17 3217.76 8176.73 3173.78 8177.44 3119.06L8187.01 2385.26M6747.16 2385.26V2128.76C6747.16 2073.53 6791.93 2028.76 6847.16 2028.76H8090.35C8146.08 2028.76 8191.06 2074.33 8190.34 2130.06L8187.01 2385.26M6747.16 2385.26H7500.16M8187.01 2385.26H7767.66M7500.16 2385.26V2642.55C7500.16 2672.15 7513.28 2700.24 7535.99 2719.24L7545.8 2727.45C7563.8 2742.51 7586.51 2750.76 7609.98 2750.76H7666.26C7693.65 2750.76 7719.84 2739.53 7738.72 2719.68L7740.11 2718.22C7757.8 2699.63 7767.66 2674.95 7767.66 2649.3V2385.26M7500.16 2385.26H7767.66M5549.66 2750.76H5327.16M5549.66 2750.76V2661.76M5327.16 2750.76C5421.66 2750.76 5549.66 2661.76 5549.66 2661.76M6065.66 598.761L6060.66 586.495M6060.66 586.495L6068.16 602.261" stroke="#CCD1FF" stroke-width="100"/>
</svg>
