<svg width="3401" height="1695" viewBox="0 0 3401 1695" fill="none" xmlns="http://www.w3.org/2000/svg">
<path d="M1 67.2139C1 42.6206 13.2951 30.3239 37.8854 30.3239H106.738C127.23 30.3239 141.164 39.3415 150.181 58.1964L307.559 398.404L465.756 58.1964C474.772 39.3415 488.707 30.3239 509.199 30.3239H578.051C602.642 30.3239 614.937 42.6206 614.937 67.2139V600.069C614.937 624.663 602.642 636.958 578.051 636.958H496.903C472.313 636.958 460.018 624.663 460.018 600.069V388.567L367.395 608.267C359.198 627.122 344.444 636.958 323.952 636.958H291.165C270.673 636.958 255.919 627.122 247.722 608.267L155.919 389.387V600.069C155.919 624.663 143.623 636.958 119.033 636.958H37.8854C13.2951 636.958 1 624.663 1 600.069V67.2139Z" fill="white"/>
<path d="M966.52 636.967C877.995 636.967 799.306 600.897 741.109 543.513C682.912 486.128 647.666 406.61 647.666 318.894C647.666 230.358 682.912 151.659 741.109 93.4546C799.306 35.2504 877.995 0 966.52 0C1054.22 0 1133.73 35.2504 1191.93 93.4546C1250.13 151.659 1285.37 230.358 1285.37 318.894C1285.37 406.61 1250.13 486.128 1191.93 543.513C1133.73 600.897 1054.22 636.967 966.52 636.967ZM966.52 154.938C921.438 154.938 880.454 173.793 850.946 203.305C821.437 232.817 802.585 273.806 802.585 318.894C802.585 363.981 821.437 404.97 850.946 434.482C880.454 463.994 921.438 482.029 966.52 482.029C1011.6 482.029 1052.59 463.994 1082.09 434.482C1111.6 404.97 1129.64 363.981 1129.64 318.894C1129.64 273.806 1111.6 232.817 1082.09 203.305C1052.59 173.793 1011.6 154.938 966.52 154.938Z" fill="white"/>
<path d="M1342.87 636.958C1318.28 636.958 1305.99 624.663 1305.99 600.069V67.2139C1305.99 42.6206 1318.28 30.3239 1342.87 30.3239H1413.36C1432.22 30.3239 1447.79 38.5217 1458.45 54.0975L1647.79 328.723V67.2139C1647.79 42.6206 1660.09 30.3239 1684.68 30.3239H1765.82C1790.41 30.3239 1802.71 42.6206 1802.71 67.2139V600.069C1802.71 624.663 1790.41 636.958 1765.82 636.958H1695.33C1676.48 636.958 1660.91 628.761 1650.25 613.185L1460.9 336.101V600.069C1460.9 624.663 1448.61 636.958 1424.02 636.958H1342.87Z" fill="white"/>
<path d="M2184.73 484.686C2194.57 478.127 2199.48 469.11 2200.3 459.273C2201.12 450.255 2198.66 442.057 2192.93 436.319C2190.47 433.859 2187.19 431.4 2183.09 428.121C2174.07 422.383 2158.5 414.185 2129.81 405.987C2115.06 401.888 2097.02 397.789 2074.89 393.69C1985.55 374.835 1906.86 340.405 1874.89 294.497C1858.5 269.084 1850.3 242.031 1848.66 216.618C1847.02 191.205 1849.48 167.432 1856.04 148.577C1869.15 105.948 1901.94 70.6978 1944.56 46.1044C1987.19 21.5112 2040.47 7.57493 2098.66 7.57493C2147.84 7.57493 2188.83 15.7726 2222.43 25.61C2255.22 36.2671 2282.27 51.0231 2302.76 64.1396C2323.25 77.256 2326.53 94.4713 2310.96 114.966L2266.7 176.449C2254.4 195.304 2237.19 199.403 2215.88 187.106C2186.37 169.891 2144.57 152.676 2098.66 152.676C2069.16 152.676 2048.66 159.234 2035.55 166.612C2022.43 173.99 2015.88 183.827 2013.42 190.385C2006.86 206.781 2014.24 218.258 2028.99 227.275C2043.75 236.293 2065.88 242.031 2092.11 247.77C2219.98 273.183 2288.83 306.794 2319.16 346.143C2351.12 387.952 2359.32 437.139 2350.3 488.784C2344.57 528.134 2324.07 567.483 2285.55 596.995C2247.03 627.327 2189.65 647 2110.14 647H2095.39C2089.65 647 2084.73 647 2078.99 646.18C2015.88 642.901 1942.93 629.786 1860.96 583.059C1838.83 570.762 1835.55 551.088 1851.12 531.413L1906.04 462.552C1919.97 443.697 1937.19 441.237 1957.68 453.534C2000.3 478.947 2033.09 490.424 2079.81 496.162C2126.53 501.901 2167.52 496.982 2184.73 484.686Z" fill="white"/>
<path d="M2663.81 31.1572C2684.3 31.1572 2699.06 40.9945 2706.43 60.6692L2893.32 595.164C2902.34 621.397 2891.68 637.791 2862.99 637.791H2775.29C2753.98 637.791 2740.04 627.955 2733.48 607.46L2708.07 532.861H2527.74L2502.34 607.46C2494.96 627.955 2481.02 637.791 2459.71 637.791H2371.19C2342.5 637.791 2331.84 621.397 2340.86 595.164L2528.56 60.6692C2535.94 40.9945 2549.88 31.1572 2570.37 31.1572H2663.81ZM2673.65 398.418L2617.09 230.363L2565.45 398.418H2673.65Z" fill="white"/>
<path d="M3160.44 328.736L3388.31 592.705C3410.44 616.478 3399.79 637.791 3367.82 637.791H3262.9C3245.69 637.791 3230.11 630.414 3217.82 616.478L3078.47 451.703V600.902C3078.47 625.496 3066.18 637.791 3041.59 637.791H2960.44C2935.85 637.791 2923.55 625.496 2923.55 600.902V68.0472C2923.55 43.4539 2935.85 31.1572 2960.44 31.1572H3041.59C3066.18 31.1572 3078.47 43.4539 3078.47 68.0472V217.247L3221.1 52.4714C3234.21 36.8956 3247.33 31.9769 3266.18 31.9769H3355.52C3387.49 31.9769 3397.33 53.2912 3376.83 77.0648L3160.44 328.736Z" fill="white"/>
<path d="M254.318 1315.21V1441.36H636.788C677.048 1441.36 697.178 1461.49 697.178 1501.75V1634.61C697.178 1674.87 677.048 1695 636.788 1695H61.0702C20.8102 1695 0.680176 1674.87 0.680176 1634.61V762.308C0.680176 722.048 20.8102 701.918 61.0702 701.918H636.788C677.048 701.918 697.178 722.048 697.178 762.308V895.166C697.178 935.426 677.048 955.556 636.788 955.556H254.318V1080.36H536.138C576.398 1080.36 596.528 1100.49 596.528 1140.75V1254.82C596.528 1295.08 576.398 1315.21 536.138 1315.21H254.318Z" fill="white"/>
<path d="M1024.77 1315.21V1634.61C1024.77 1674.87 1004.64 1695 964.377 1695H831.519C791.259 1695 771.129 1674.87 771.129 1634.61V762.308C771.129 722.048 791.259 701.918 831.519 701.918H1388.45C1428.71 701.918 1448.84 722.048 1448.84 762.308V895.166C1448.84 935.426 1428.71 955.556 1388.45 955.556H1024.77V1080.36H1287.8C1328.06 1080.36 1348.19 1100.49 1348.19 1140.75V1254.82C1348.19 1295.08 1328.06 1315.21 1287.8 1315.21H1024.77Z" fill="white"/>
<path d="M1816.55 701.918C1850.1 701.918 1874.25 718.022 1886.33 750.23L2192.31 1625.21C2207.07 1668.16 2189.62 1695 2142.65 1695H1999.06C1964.17 1695 1941.35 1678.89 1930.62 1645.34L1889.01 1523.22H1593.77L1552.17 1645.34C1540.09 1678.89 1517.28 1695 1482.39 1695H1337.45C1290.48 1695 1273.04 1668.16 1287.8 1625.21L1595.12 750.23C1607.19 718.022 1630.01 701.918 1663.56 701.918H1816.55ZM1832.65 1303.13L1740.05 1028.02L1655.51 1303.13H1832.65Z" fill="white"/>
<path d="M2472.36 701.918C2512.62 701.918 2532.75 722.048 2532.75 762.308V1634.61C2532.75 1674.87 2512.62 1695 2472.36 1695H2339.5C2299.24 1695 2279.11 1674.87 2279.11 1634.61V762.308C2279.11 722.048 2299.24 701.918 2339.5 701.918H2472.36Z" fill="white"/>
<path d="M2939.95 1695C2899.69 1695 2879.56 1674.87 2879.56 1634.61V955.558H2672.89C2632.63 955.558 2612.5 935.428 2612.5 895.168V762.31C2612.5 722.05 2632.63 701.92 2672.89 701.92H3339.86C3380.12 701.92 3400.25 722.05 3400.25 762.31V895.168C3400.25 935.428 3380.12 955.558 3339.86 955.558H3133.2V1634.61C3133.2 1674.87 3113.07 1695 3072.81 1695H2939.95Z" fill="white"/>
</svg>
